<svg width="354" height="33" viewBox="0 0 354 33" fill="none" xmlns="http://www.w3.org/2000/svg">
<g opacity="0.2">
<mask id="mask0_68_347" style="mask-type:alpha" maskUnits="userSpaceOnUse" x="0" y="0" width="354" height="33">
<path d="M10.7 0C6.5 0 4.1 1.5 2.8 2.9C1.3 4.5 0.5 6.50001 0.5 8.60001C0.5 14.2 6.2 15.9 9.9 17.2C14.1 18.7 16 19.8 16 21.5C16 22.9 15.1 24 14 24.5C12.5 25.2 11 24.7 9.6 24.6C8.3 24.5 7.1 25.5 7.1 27.2C7.1 29.3 10 30.1 12.1 30.1C18.6 30.1 21.4 25.9 21.4 21.8C21.4 16.8 16.8 14.6 11.6 12.6C7.3 11 5.9 9.90001 5.9 8.60001C5.9 6.60001 7.8 5.2 10.6 5.2C13.7 5.2 15.5 6.90001 16.2 7.60001C17.2 8.50001 18.7 8.59999 19.7 7.39999C20.4 6.49999 20.6 5.1 19.8 4.2C18.7 2.5 15.5 0 10.7 0Z" fill="#208A88"/>
<path d="M342.5 0C338.3 0 335.9 1.5 334.6 2.9C333.1 4.5 332.3 6.50001 332.3 8.60001C332.3 14.2 338 15.9 341.7 17.2C345.9 18.7 347.8 19.8 347.8 21.5C347.8 22.9 346.9 24 345.8 24.5C344.3 25.2 342.8 24.7 341.4 24.6C340.1 24.5 338.9 25.5 338.9 27.2C338.9 29.3 341.8 30.1 343.9 30.1C350.4 30.1 353.2 25.9 353.2 21.8C353.2 16.8 348.6 14.6 343.4 12.6C339.2 11 337.7 9.90001 337.7 8.60001C337.7 6.60001 339.6 5.2 342.4 5.2C345.5 5.2 347.3 6.90001 348 7.60001C349 8.50001 350.5 8.59999 351.5 7.39999C352.2 6.49999 352.4 5.1 351.6 4.2C350.4 2.5 347.2 0 342.5 0Z" fill="#208A88"/>
<path d="M70.2 0.700195C68.7 0.700195 67.5 1.9002 67.5 3.4002V17.3002C67.5 24.9002 72.5 30.1002 80 30.1002C88.6 30.1002 92.5 23.5002 92.5 17.3002V11.5002C92.5 10.0002 91.3 8.8002 89.8 8.8002C88.3 8.8002 87.1 10.0002 87.1 11.5002V17.2002C87.1 20.8002 85.3 24.6002 80.1 24.6002C73.7 24.6002 73.1 19.5002 73.1 17.2002V3.3002C72.9 1.9002 71.7 0.700195 70.2 0.700195Z" fill="#208A88"/>
<path d="M89.7 0.700195C88.2 0.700195 87 1.9002 87 3.4002C87 4.9002 88.2 6.1002 89.7 6.1002C91.2 6.1002 92.4 4.9002 92.4 3.4002C92.4 1.9002 91.2 0.700195 89.7 0.700195Z" fill="#208A88"/>
<path d="M137.2 0.700195C135.7 0.700195 134.5 1.9002 134.5 3.4002V26.6002C134.5 28.1002 135.7 29.3002 137.2 29.3002C138.7 29.3002 139.9 28.1002 139.9 26.6002V5.90019H144.6C150.7 5.90019 153.9 9.0002 153.9 15.0002C153.9 17.4002 153.2 19.5002 152 21.0002C151.7 21.3002 151.3 21.7002 151.1 22.1002C150 23.2002 150 24.8002 150.8 25.8002C151.8 26.9002 153.5 27.1002 154.6 26.1002C157.6 23.5002 159.3 19.4002 159.3 15.1002C159.3 6.2002 153.7 0.800201 144.6 0.800201L137.2 0.700195Z" fill="#208A88"/>
<path d="M247 0.700195C245.5 0.700195 244.3 1.9002 244.3 3.4002V26.6002C244.3 28.1002 245.5 29.3002 247 29.3002C248.5 29.3002 249.7 28.1002 249.7 26.6002V18.4002L259.2 28.5002C260.3 29.6002 262 29.6002 263 28.6002C264.1 27.5002 264.1 25.8002 263.1 24.8002L253 14.4002L256.6 11.1002C257.7 10.0002 257.7 8.3002 256.6 7.3002C255.5 6.2002 253.8 6.3002 252.8 7.3002L249.7 10.6002V3.4002C249.7 1.9002 248.5 0.700195 247 0.700195Z" fill="#208A88"/>
<path d="M260.4 0.700195C258.9 0.700195 257.7 1.9002 257.7 3.4002C257.7 4.9002 258.9 6.1002 260.4 6.1002C261.9 6.1002 263.1 4.9002 263.1 3.4002C263.2 1.9002 261.9 0.700195 260.4 0.700195Z" fill="#208A88"/>
<path d="M275.5 0.700195C274 0.700195 272.8 1.9002 272.8 3.4002V26.6002C272.8 28.1002 274 29.3002 275.5 29.3002H289.4C290.9 29.3002 292.1 28.1002 292.1 26.6002C292.1 25.1002 290.9 23.9002 289.4 23.9002H278.2V17.6002H287.7C289.2 17.6002 290.4 16.5002 290.4 15.0002C290.4 13.5002 289.2 12.4002 287.7 12.4002H278.2V6.2002H281.1C282.6 6.2002 283.8 5.0002 283.8 3.5002C283.8 2.0002 282.6 0.800201 281.1 0.800201L275.5 0.700195Z" fill="#208A88"/>
<path d="M289.3 0.700195C287.8 0.700195 286.6 1.9002 286.6 3.4002C286.6 4.9002 287.8 6.1002 289.3 6.1002C290.8 6.1002 292 4.9002 292 3.4002C292 1.9002 290.8 0.700195 289.3 0.700195Z" fill="#208A88"/>
<path d="M170.9 0.7C170.8 0.7 170.6 0.700006 170.5 0.800006C169.3 1.10001 168.5 2.2 168.5 3.4V26.6C168.5 28.1 169.7 29.3 171.2 29.3C172.7 29.3 173.9 28.1 173.9 26.6V12.7L181.5 27.8C182 28.7 182.9 29.2 183.9 29.2C184.9 29.2 185.8 28.7 186.3 27.8L194.3 12.4V18.4C194.3 19.9 195.5 21.1 197 21.1C198.5 21.1 199.7 19.9 199.7 18.4V3.30001C199.7 2.10001 198.8 1 197.7 0.7C196.5 0.4 195.2 0.900003 194.7 2L184 21.7L173.6 2C173 1.2 171.9 0.6 170.9 0.7Z" fill="#208A88"/>
<path d="M44.2002 0C35.9002 0 29.2002 6.70001 29.2002 15.1C29.2002 23.4 35.9002 30.1 44.2002 30.1C52.5002 30.1 59.3002 23.4 59.3002 15.1C59.2002 6.70001 52.5002 0 44.2002 0ZM44.2002 24.6C38.9002 24.6 34.6002 20.4 34.6002 15C34.6002 9.7 38.9002 5.4 44.2002 5.4C49.5002 5.4 53.8002 9.7 53.8002 15C53.8002 20.4 49.5002 24.6 44.2002 24.6Z" fill="#208A88"/>
<path d="M322.7 9.8002C322.7 4.2002 318.9 0.700195 313.1 0.700195H304.3C302.8 0.700195 301.6 1.9002 301.6 3.4002V26.6002C301.6 28.1002 302.8 29.3002 304.3 29.3002C305.8 29.3002 307 28.1002 307 26.6002V19.2002H312.9L314.1 21.2002C314.9 22.5002 316.6 22.8002 317.8 22.0002C320.3 20.4002 318.3 17.8002 318.3 17.8002C321.2 16.2002 322.7 13.3002 322.7 9.8002ZM313 14.6002H307V6.0002H313C315.8 6.0002 317.2 7.7002 317.2 10.2002C317.3 12.4002 316.2 14.6002 313 14.6002Z" fill="#208A88"/>
<path d="M122.4 17.6001L115.1 2.2001C114.6 1.3001 113.7 0.600098 112.6 0.600098C111.5 0.600098 110.6 1.2001 110.1 2.2001L99.1002 25.4001C98.5002 26.8001 99.1002 28.4001 100.4 29.0001C101.7 29.6001 103.3 29.0001 104 27.7001L106.6 22.3001H120.3C121.2 22.3001 122.1 21.8001 122.5 21.1001C123.6 19.8001 122.8 18.6001 122.4 17.6001ZM108.9 17.7001L112.7 9.7001L116.5 17.7001H108.9Z" fill="#208A88"/>
<path d="M232.2 17.6001L224.9 2.2001C224.5 1.3001 223.5 0.600098 222.4 0.600098C221.3 0.600098 220.4 1.2001 219.9 2.2001L208.9 25.4001C208.3 26.8001 208.9 28.4001 210.2 29.0001C211.6 29.6001 213.1 29.0001 213.8 27.7001L216.4 22.3001H230.1C231 22.3001 231.9 21.8001 232.4 21.1001C233.4 19.8001 232.6 18.6001 232.2 17.6001ZM218.7 17.7001L222.5 9.7001L226.3 17.7001H218.7Z" fill="#208A88"/>
<path d="M2.7 20.8999C1.2 20.8999 0 22.0999 0 23.5999C0 25.0999 1.2 26.2999 2.7 26.2999C4.2 26.2999 5.4 25.0999 5.4 23.5999C5.4 21.9999 4.2 20.8999 2.7 20.8999Z" fill="#208A88"/>
<path d="M334.4 20.8999C332.9 20.8999 331.7 22.0999 331.7 23.5999C331.7 25.0999 332.9 26.2999 334.4 26.2999C335.9 26.2999 337.1 25.0999 337.1 23.5999C337.1 21.9999 335.9 20.8999 334.4 20.8999Z" fill="#208A88"/>
<path d="M320.9 23.7998C319.4 23.7998 318.2 24.9998 318.2 26.4998C318.2 27.9998 319.4 29.1998 320.9 29.1998C322.4 29.1998 323.6 27.9998 323.6 26.4998C323.6 25.0998 322.4 23.7998 320.9 23.7998Z" fill="#208A88"/>
<path d="M123.7 23.8999C122.2 23.8999 121 25.0999 121 26.5999C121 28.0999 122.2 29.2999 123.7 29.2999C125.2 29.2999 126.4 28.0999 126.4 26.5999C126.4 25.0999 125.2 23.8999 123.7 23.8999Z" fill="#208A88"/>
<path d="M145.3 23.8999C143.8 23.8999 142.6 25.0999 142.6 26.5999C142.6 28.0999 143.8 29.2999 145.3 29.2999C146.8 29.2999 148 28.0999 148 26.5999C148 25.0999 146.8 23.8999 145.3 23.8999Z" fill="#208A88"/>
<path d="M196.8 23.8999C195.3 23.8999 194.1 25.0999 194.1 26.5999C194.1 28.0999 195.3 29.2999 196.8 29.2999C198.3 29.2999 199.5 28.0999 199.5 26.5999C199.6 25.0999 198.4 23.8999 196.8 23.8999Z" fill="#208A88"/>
<path d="M233.5 23.8999C232 23.8999 230.8 25.0999 230.8 26.5999C230.8 28.0999 232 29.2999 233.5 29.2999C235 29.2999 236.2 28.0999 236.2 26.5999C236.2 25.0999 235 23.8999 233.5 23.8999Z" fill="#208A88"/>
<path d="M56.7 27.6001C55.2 27.6001 54 28.8001 54 30.3001C54 31.8001 55.2 33.0001 56.7 33.0001C58.2 33.0001 59.4 31.8001 59.4 30.3001C59.4 28.8001 58.2 27.6001 56.7 27.6001Z" fill="#208A88"/>
</mask>
<g mask="url(#mask0_68_347)">
<rect x="-0.45166" y="-0.23877" width="354" height="34" fill="url(#paint0_linear_68_347)"/>
</g>
</g>
<defs>
<linearGradient id="paint0_linear_68_347" x1="-0.451662" y1="16.7613" x2="353.548" y2="16.7613" gradientUnits="userSpaceOnUse">
<stop stop-color="#232121"/>
<stop offset="1" stop-color="#1D7F7D"/>
</linearGradient>
</defs>
</svg>
